<svg xmlns="http://www.w3.org/2000/svg" xmlns:xlink="http://www.w3.org/1999/xlink" viewBox="0,0,256,256" width="48px" height="48px">
  <g fill="#ffffff" fill-rule="nonzero" stroke="none" stroke-width="1" stroke-linecap="butt" stroke-linejoin="miter" stroke-miterlimit="10" stroke-dasharray="" stroke-dashoffset="0" font-family="none" font-weight="none" font-size="none" text-anchor="none" style="mix-blend-mode: normal">
    <g transform="scale(4,4)">
      <path d="M10,24h44v13l-14,14h-24c-3.31,0 -6,-2.69 -6,-6zM22.5,45.5c1.105,0 2,-0.895 2,-2c0,-1.105 -0.895,-2 -2,-2c-1.105,0 -2,0.895 -2,2c0,1.105 0.895,2 2,2zM22.5,38.5c1.105,0 2,-0.895 2,-2c0,-1.105 -0.895,-2 -2,-2c-1.105,0 -2,0.895 -2,2c0,1.105 0.895,2 2,2zM22.5,31.5c1.105,0 2,-0.895 2,-2c0,-1.105 -0.895,-2 -2,-2c-1.105,0 -2,0.895 -2,2c0,1.105 0.895,2 2,2zM41.5,45c0.828,0 1.5,-0.671 1.5,-1.5c0,-0.829 -0.672,-1.5 -1.5,-1.5h-13c-0.828,0 -1.5,0.671 -1.5,1.5c0,0.829 0.672,1.5 1.5,1.5zM40.5,38c0.828,0 1.5,-0.671 1.5,-1.5c0,-0.829 -0.672,-1.5 -1.5,-1.5h-12c-0.828,0 -1.5,0.671 -1.5,1.5c0,0.829 0.672,1.5 1.5,1.5zM40.5,31c0.828,0 1.5,-0.671 1.5,-1.5c0,-0.829 -0.672,-1.5 -1.5,-1.5h-12c-0.828,0 -1.5,0.671 -1.5,1.5c0,0.829 0.672,1.5 1.5,1.5zM54,21h-44v-2c0,-3.31 2.69,-6 6,-6h32c3.31,0 6,2.69 6,6zM55.268,39.563l2.218,2.233l1.107,-1.135c0.553,-0.582 0.597,-1.383 0.044,-1.936l-0.378,-0.393c-0.495,-0.495 -1.325,-0.422 -1.863,0.116zM41.569,55.997c-0.335,0.131 -0.713,-0.247 -0.568,-0.582l1.31,-2.882l11.887,-11.901l2.241,2.227l-11.886,11.887z"></path>
    </g>
  </g>
</svg>
