<svg xmlns="http://www.w3.org/2000/svg" xmlns:xlink="http://www.w3.org/1999/xlink" viewBox="0,0,256,256" width="48px" height="48px">
  <g fill="#ffffff" fill-rule="nonzero" stroke="none" stroke-width="1" stroke-linecap="butt" stroke-linejoin="miter" stroke-miterlimit="10" stroke-dasharray="" stroke-dashoffset="0" font-family="none" font-weight="none" font-size="none" text-anchor="none" style="mix-blend-mode: normal">
    <g transform="scale(5.33333,5.33333)">
      <path d="M27,1v9h3v-9zM12,6v8h3v-8zM17,6v8h3v-8zM22,6v8h3v-8zM32,6v8h3v-8zM11.5,16c-0.82839,0.00008 -1.49992,0.67161 -1.5,1.5v25c0,1.91495 1.58504,3.5 3.5,3.5h20c1.91495,0 3.5,-1.58505 3.5,-3.5v-25c-0.00008,-0.82839 -0.67161,-1.49992 -1.5,-1.5zM23.5,25c3.59,0 6.5,2.91 6.5,6.5c0,3.59 -2.91,6.5 -6.5,6.5c-3.59,0 -6.5,-2.91 -6.5,-6.5c0,-3.59 2.91,-6.5 6.5,-6.5z"></path>
    </g>
  </g>
</svg>
