<svg xmlns="http://www.w3.org/2000/svg" xmlns:xlink="http://www.w3.org/1999/xlink" viewBox="0,0,256,256" width="50px" height="50px">
  <g fill="#ffffff" fill-rule="nonzero" stroke="none" stroke-width="1" stroke-linecap="butt" stroke-linejoin="miter" stroke-miterlimit="10" stroke-dasharray="" stroke-dashoffset="0" font-family="none" font-weight="none" font-size="none" text-anchor="none" style="mix-blend-mode: normal">
    <g transform="scale(5.12,5.12)">
      <path d="M28.875,4c-0.22266,0.02344 -0.43359,0.125 -0.59375,0.28125c-0.45703,0.45703 -0.89062,1.19141 -1.375,2.25c-0.48437,1.05859 -0.93359,2.38281 -0.9375,3.8125c-0.00391,1.42969 0.47656,3 1.75,4.21875c1.27344,1.21875 3.25781,2.06641 6.15625,2.4375c2.52344,0.32031 4.23438,0.74609 5.28125,1.375c1.04688,0.62891 1.55469,1.39453 1.875,2.84375c0.03906,0.38281 0.29688,0.71094 0.66016,0.83984c0.36328,0.12891 0.76953,0.03516 1.04297,-0.23437c0.26953,-0.27344 0.36328,-0.67969 0.23438,-1.04297c-0.39844,-1.8125 -1.29687,-3.23437 -2.78125,-4.125c-1.48437,-0.89062 -3.4375,-1.32031 -6.0625,-1.65625c-2.62891,-0.33594 -4.17187,-1.08594 -5.03125,-1.90625c-0.85937,-0.82031 -1.12891,-1.73047 -1.125,-2.75c0.00391,-1.01953 0.34766,-2.12109 0.75,-3c0.40234,-0.87891 0.95703,-1.58203 1,-1.625c0.32422,-0.30078 0.41016,-0.77734 0.21484,-1.17187c-0.19141,-0.39844 -0.625,-0.61719 -1.05859,-0.54687zM34.8125,5c-0.55078,0.05078 -0.95703,0.54297 -0.90625,1.09375c0.05078,0.55078 0.54297,0.95703 1.09375,0.90625c1.05078,0 2.5,0.125 3.65625,0.78125c1.15625,0.65625 2.12891,1.76563 2.34375,4.3125c0.04688,0.51563 0.48047,0.91016 1,0.90625c0.92578,0 2.82813,0.24609 3.90625,1.1875c0.53906,0.47266 0.91016,1.0625 1.03125,2.0625c0.12109,1 -0.07812,2.4375 -0.875,4.375c-0.20703,0.51953 0.04297,1.10547 0.5625,1.3125c0.51953,0.20703 1.10547,-0.04297 1.3125,-0.5625c0.88281,-2.14844 1.17188,-3.89062 1,-5.34375c-0.17187,-1.45312 -0.85156,-2.58594 -1.71875,-3.34375c-1.46484,-1.27734 -3.21094,-1.52734 -4.46875,-1.59375c-0.44531,-2.49219 -1.60547,-4.21875 -3.09375,-5.0625c-1.66797,-0.94531 -3.48437,-1.03125 -4.65625,-1.03125c-0.03125,0 -0.0625,0 -0.09375,0c-0.03125,0 -0.0625,0 -0.09375,0zM1,24c-0.55078,0 -1,0.44922 -1,1v8c0,0.55469 0.44922,1 1,1h37v-10zM40,24v10h3v-10zM45,24v10h4c0.55469,0 1,-0.44531 1,-1v-8c0,-0.55078 -0.44531,-1 -1,-1z"></path>
    </g>
  </g>
</svg>
