<svg xmlns="http://www.w3.org/2000/svg" xmlns:xlink="http://www.w3.org/1999/xlink" viewBox="0,0,256,256" width="48px" height="48px">
  <g fill="#ffffff" fill-rule="nonzero" stroke="none" stroke-width="1" stroke-linecap="butt" stroke-linejoin="miter" stroke-miterlimit="10" stroke-dasharray="" stroke-dashoffset="0" font-family="none" font-weight="none" font-size="none" text-anchor="none" style="mix-blend-mode: normal">
    <g transform="scale(10.66667,10.66667)">
      <path d="M6.75,2c-1.50433,0 -2.75,1.24567 -2.75,2.75v14.5c0,1.50433 1.24567,2.75 2.75,2.75h10.5c1.50433,0 2.75,-1.24567 2.75,-2.75v-1c0.00638,-0.45079 -0.23047,-0.8701 -0.61984,-1.09736c-0.38937,-0.22726 -0.87095,-0.22726 -1.26032,0c-0.38937,0.22726 -0.62622,0.64656 -0.61984,1.09736v1c0,0.15167 -0.09833,0.25 -0.25,0.25h-10.5c-0.15167,0 -0.25,-0.09833 -0.25,-0.25v-14.5c0,-0.15167 0.09833,-0.25 0.25,-0.25h10.5c0.15167,0 0.25,0.09833 0.25,0.25v1c-0.00638,0.45079 0.23047,0.8701 0.61984,1.09736c0.38937,0.22726 0.87095,0.22726 1.26032,0c0.38937,-0.22726 0.62622,-0.64656 0.61984,-1.09736v-1c0,-1.50433 -1.24567,-2.75 -2.75,-2.75zM16.74219,7.73828c-0.50843,0.00092 -0.96565,0.30967 -1.15647,0.78093c-0.19082,0.47126 -0.07722,1.01115 0.28733,1.36555l0.86523,0.86523h-6.48242c-0.45079,-0.00638 -0.8701,0.23047 -1.09736,0.61984c-0.22726,0.38937 -0.22726,0.87095 0,1.26032c0.22726,0.38937 0.64656,0.62622 1.09736,0.61984h6.48242l-0.86523,0.86523c-0.48864,0.4881 -0.48908,1.27991 -0.00098,1.76856c0.4881,0.48864 1.27991,0.48908 1.76856,0.00098l3,-3c0.23493,-0.23451 0.36695,-0.55282 0.36695,-0.88477c0,-0.33194 -0.13202,-0.65026 -0.36695,-0.88477l-3,-3c-0.23618,-0.24199 -0.5603,-0.37798 -0.89844,-0.37695z"></path>
    </g>
  </g>
</svg>
