<svg xmlns="http://www.w3.org/2000/svg" xmlns:xlink="http://www.w3.org/1999/xlink" viewBox="0,0,256,256" width="50px" height="50px">
  <g fill="#ffffff" fill-rule="nonzero" stroke="none" stroke-width="1" stroke-linecap="butt" stroke-linejoin="miter" stroke-miterlimit="10" stroke-dasharray="" stroke-dashoffset="0" font-family="none" font-weight="none" font-size="none" text-anchor="none" style="mix-blend-mode: normal">
    <g transform="scale(5.12,5.12)">
      <path d="M29,4c-0.25391,0 -0.52344,0.08594 -0.71875,0.28125c-0.78125,0.78125 -3.16797,4.64063 -2,8.0625c0.875,2.5625 3.44141,4.125 7.59375,4.65625c4.96484,0.63281 6.57422,1.57422 7.15625,4.21875c0.10156,0.46875 0.50781,0.78125 0.96875,0.78125c0.07031,0 0.14844,-0.01562 0.21875,-0.03125c0.53906,-0.11719 0.86719,-0.64844 0.75,-1.1875c-0.88672,-4.01953 -3.78906,-5.13672 -8.84375,-5.78125c-3.33594,-0.42578 -5.32812,-1.53125 -5.9375,-3.3125c-0.82422,-2.41406 1.08203,-5.51953 1.53125,-5.96875c0.39063,-0.39062 0.39063,-1.04687 0,-1.4375c-0.19531,-0.19531 -0.46484,-0.28125 -0.71875,-0.28125zM35,5c-0.55469,0 -1,0.44922 -1,1c0,0.55078 0.44531,1 1,1c2.39453,0 5.61328,0.53516 6,5.09375c0.04297,0.51953 0.48047,0.90625 1,0.90625c0.75781,0 3.30078,0.12891 4.40625,1.78125c0.84375,1.26172 0.73047,3.23047 -0.34375,5.84375c-0.21094,0.51172 0.05078,1.10156 0.5625,1.3125c0.125,0.05078 0.24609,0.0625 0.375,0.0625c0.39453,0 0.78125,-0.23828 0.9375,-0.625c1.34375,-3.26953 1.39453,-5.86719 0.15625,-7.71875c-1.31641,-1.96094 -3.69531,-2.49219 -5.21875,-2.625c-0.48828,-2.93359 -2.30859,-6.03125 -7.875,-6.03125zM9,9c-0.25391,0 -0.52344,0.08594 -0.71875,0.28125c-0.39062,0.39063 -0.39062,1.04688 0,1.4375l36,36c0.19531,0.19531 0.46094,0.28125 0.71875,0.28125c0.25781,0 0.52344,-0.08594 0.71875,-0.28125c0.39063,-0.39062 0.39063,-1.04687 0,-1.4375l-11.28125,-11.28125h3.5625v-10h-13.5625l-14.71875,-14.71875c-0.19531,-0.19531 -0.46484,-0.28125 -0.71875,-0.28125zM1,24c-0.55469,0 -1,0.44531 -1,1v8c0,0.55469 0.44531,1 1,1h27l-10,-10zM40,24v10h3v-10zM45,24v10h4c0.55469,0 1,-0.44531 1,-1v-8c0,-0.55078 -0.44531,-1 -1,-1z"></path>
    </g>
  </g>
</svg>
