<?xml version="1.0" encoding="UTF-8" standalone="no"?>
<svg
   xmlns:dc="http://purl.org/dc/elements/1.1/"
   xmlns:cc="http://creativecommons.org/ns#"
   xmlns:rdf="http://www.w3.org/1999/02/22-rdf-syntax-ns#"
   xmlns:svg="http://www.w3.org/2000/svg"
   xmlns="http://www.w3.org/2000/svg"
   xmlns:sodipodi="http://sodipodi.sourceforge.net/DTD/sodipodi-0.dtd"
   xmlns:inkscape="http://www.inkscape.org/namespaces/inkscape"
   version="1.1"
   width="371"
   height="440"
   viewBox="0 -2.8421709e-14 371 440"
   xml:space="preserve"
   id="svg11"
   sodipodi:docname="built.svg"><metadata
   id="metadata15"><rdf:RDF><cc:Work
       rdf:about=""><dc:format>image/svg+xml</dc:format><dc:type
         rdf:resource="http://purl.org/dc/dcmitype/StillImage" /></cc:Work></rdf:RDF></metadata><sodipodi:namedview
   pagecolor="#ffffff"
   bordercolor="#666666"
   borderopacity="1"
   objecttolerance="10"
   gridtolerance="10"
   guidetolerance="10"
   inkscape:pageopacity="0"
   inkscape:pageshadow="2"
   inkscape:window-width="640"
   inkscape:window-height="480"
   id="namedview13"
   fit-margin-top="20"
   fit-margin-left="20"
   fit-margin-right="20"
   fit-margin-bottom="20" />
<desc
   id="desc2">Created with Fabric.js 5.3.0</desc>
<defs
   id="defs4">
</defs>
<g
   transform="matrix(0.87,0,0,0.87,185.59,219.44)"
   id="main_icon">
<path
   style="opacity:1;fill:#78a22a;fill-rule:nonzero;stroke:none;stroke-width:1;stroke-linecap:butt;stroke-linejoin:miter;stroke-miterlimit:4;stroke-dasharray:none;stroke-dashoffset:0"
   transform="translate(-188.89,-228.74)"
   d="m 255.84,82.14 c 11.51,-8 22.81,-15.7 33.83,-23.72 21,-15.27 38.83,-33.31 48.88,-58.42 2,12.14 -5.39,37.49 -15.69,55.38 C 313,72.47 299.75,86.56 284.74,99 c 50.8,42.94 81.33,95.53 76.34,163.58 -4.94,67.57 -39.21,117.14 -98.92,150 16.47321,12.30129 35.01574,21.55393 54.75,27.32 19.58952,6.03969 40.23848,7.84963 60.58,5.31 0.1,0.57 0.19,1.14 0.29,1.71 -8.73,2.18 -17.36,5.11 -26.22,6.38 -30.8,4.43 -60.81,-0.42 -89.93,-10.25 -15.84,-5.35 -30.95,-12.84 -46.46,-19.2 -1.48592,-0.39376 -3.06773,-0.17396 -4.39,0.61 -26.52786,15.14805 -55.67929,25.14679 -85.92,29.47 -29.58,4.37 -59.33,5.64 -88.78,-1.56 -10.69,-2.61 -20.88,-6.51 -30.44,-13.91 42.3,10.3 82.41,5.39 121.63,-9.71 C 21.2,395.47 -28.92,270.81 17.14,173.26 62.91,76.36 175.92,45.56 255.84,82.14 Z m -20.07,314.24 c 5,-5.24 11,-10.75 16.13,-17 30.83,-38 48,-82.24 57.41,-129.64 5.89,-29.57 4.65,-59 -7,-87.33 -7.61813,-18.49255 -19.42864,-34.96221 -34.5,-48.11 -6.69,8.09 -12.76,16.09 -16.35,25.76 -7.18,19.28 -6.74,38.58 0.49,57.59 5.57,14.61 12.24,28.78 18,43.31 8.63,21.71 13,43.91 7.64,67.36 -2.63,11.48 -7.55,21.78 -13.48,31.8 2.1,-13.24 2.59,-26.36 -0.08,-39.56 -4.24,-20.93 -15.57,-38.32 -26.86,-55.85 -7.92,-12.29 -16.31,-24.5 -22.36,-37.72 -15.56,-34.06 -11,-66.44 11.38,-96.28 3.86,-5.15 8.55,-9.68 12.92,-14.55 -22.33,-9.77 -45.54,-11.6 -69.46,-10.31 -11.06,0.59 -19,5.54 -26.47,12.71 -28.7,27.57 -37.23,73.48 -21,111.26 8.76,20.4 22.58,36.93 39.05,51.15 20.64,17.84 42.43,34.34 63.12,52.12 12.55,10.78 24,22.89 36.18,34.7 l -27.21,33.17 c -6.59,-6.87 -12,-13.81 -18.64,-19.17 -18.8,-15.1 -38.08,-29.62 -57.27,-44.25 C 134.55,300.1 113.29,281.16 96.87,257.19 67.28,213.92 67.51,161 98.05,118.48 c 3.89,-5.4 8.5,-10.29 13,-15.68 -0.59475,-0.0404 -1.19213,0.0136 -1.77,0.16 -11.67,6.16 -22.62,13.24 -31.82,22.93 -20,21 -31.95,45.6 -33.82,74.72 -1.79,27.79 7.16,52.55 22.67,75 17.57,25.48 40.54,45.38 67,61.08 33.69,19.94 67.53,39.37 102.46,59.69 z M 25.39,296.4 c 1.13,4.47 2,9 3.41,13.39 16.83,53 71.57,101.18 133.58,104.35 5.78,0.3 11.66,-1.47 17.5,-2.28 0,-0.54 -0.07,-1.08 -0.11,-1.62 l -21.69,-9.91 C 134.46,389.56 111,378.49 90,363.06 64.78739,344.72406 42.929713,322.17287 25.39,296.4 Z"
   stroke-linecap="round"
   id="path8" />
</g></svg>
